<?xml version="1.0" encoding="UTF-8" standalone="no"?>
<!DOCTYPE svg PUBLIC "-//W3C//DTD SVG 1.1//EN" "http://www.w3.org/Graphics/SVG/1.1/DTD/svg11.dtd">
<svg width="100%" height="100%" viewBox="0 0 908 214" version="1.1" xmlns="http://www.w3.org/2000/svg" xmlns:xlink="http://www.w3.org/1999/xlink" xml:space="preserve" xmlns:serif="http://www.serif.com/" style="fill-rule:evenodd;clip-rule:evenodd;">
    <g id="Layer-1" serif:id="Layer 1" transform="matrix(1,0,0,1,-29.795,-89.3393)">
        <g transform="matrix(-1,0,0,1,966.677,-30.792)">
            <rect x="29.795" y="139.948" width="907.087" height="126.896" style="fill:rgb(0,101,178);"/>
        </g>
        <g transform="matrix(-1,0,0,1,625.699,-31.416)">
            <rect x="307.564" y="173.376" width="10.571" height="60.664" style="fill:white;"/>
        </g>
        <g transform="matrix(1,0,0,1,393.002,147.821)">
            <path d="M0,49.565C0,53.475 -1.329,55.427 -3.996,55.427C-5.943,55.427 -8.142,54.206 -10.566,51.784L-49.467,12.7L-49.467,54.803L-59.948,54.803L-59.948,-0.619C-59.948,-2.038 -59.565,-3.263 -58.796,-4.306C-58.019,-5.342 -56.93,-5.862 -55.51,-5.862C-53.55,-5.862 -51.537,-4.819 -49.467,-2.747L-10.566,36.241L-10.566,-5.862L0,-5.862L0,49.565Z" style="fill:white;fill-rule:nonzero;"/>
        </g>
        <g transform="matrix(1,0,0,1,462.011,192.051)">
            <path d="M0,-39.52L-23.889,-39.52L-23.889,10.572L-34.372,10.572L-34.372,-39.52L-58.349,-39.52L-58.349,-50.092L0,-50.092L0,-39.52Z" style="fill:white;fill-rule:nonzero;"/>
        </g>
        <g transform="matrix(1,0,0,1,0,-31.417)">
            <path d="M518.854,208.554L484.21,208.554L484.21,197.984L518.854,197.984L518.854,208.554ZM521.608,234.041L469.209,234.041L469.209,173.376L521.608,173.376L521.608,183.948L479.769,183.948L479.769,223.47L521.608,223.47L521.608,234.041Z" style="fill:white;fill-rule:nonzero;"/>
        </g>
        <g transform="matrix(1,0,0,1,604.475,141.96)">
            <path d="M0,60.664L-15.629,60.664L-32.6,43.613L-55.425,43.613L-55.425,33.135L-27.009,33.135C-23.084,33.135 -19.808,32.27 -17.144,30.558C-14.12,28.543 -12.607,25.673 -12.607,21.94C-12.607,14.363 -17.408,10.572 -27.009,10.572L-61.64,10.572L-61.64,60.664L-72.206,60.664L-72.206,0L-28.692,0C-20.867,0 -14.561,1.693 -9.77,5.064C-4.267,8.915 -1.509,14.57 -1.509,22.033C-1.509,27.124 -3.117,31.503 -6.313,35.178C-9.273,38.612 -13.294,41.012 -18.39,42.366L0,60.664Z" style="fill:white;fill-rule:nonzero;"/>
        </g>
        <g transform="matrix(1,0,0,1,679.163,160.695)">
            <path d="M0,23.192C0,28.933 -2.04,33.548 -6.12,37.043C-10.031,40.302 -14.917,41.928 -20.785,41.928L-67.052,41.928L-67.052,31.358L-20.785,31.358C-17.874,31.358 -15.359,30.707 -13.236,29.408C-10.801,27.807 -9.586,25.646 -9.586,22.92C-9.586,20.2 -10.828,18.102 -13.316,16.617C-15.383,15.376 -17.874,14.755 -20.785,14.755L-49.381,14.755C-54.657,14.755 -59.065,13.301 -62.614,10.401C-66.405,7.262 -68.295,3.12 -68.295,-2.038C-68.295,-7.126 -66.405,-11.244 -62.614,-14.38C-59.065,-17.278 -54.657,-18.736 -49.381,-18.736L-3.632,-18.736L-3.632,-8.164L-49.381,-8.164C-51.387,-8.164 -53.098,-7.601 -54.519,-6.475C-55.954,-5.35 -56.66,-3.839 -56.66,-1.954C-56.66,0.011 -55.954,1.519 -54.519,2.585C-53.098,3.655 -51.387,4.181 -49.381,4.181L-20.785,4.181C-14.917,4.181 -10.031,5.871 -6.12,9.241C-2.04,12.804 0,17.448 0,23.192" style="fill:white;fill-rule:nonzero;"/>
        </g>
        <g transform="matrix(1,0,0,1,754.485,172.065)">
            <path d="M0,0.452C0,-5.415 -1.877,-10.208 -5.647,-13.936C-9.402,-17.663 -14.212,-19.534 -20.074,-19.534L-37.031,-19.534C-42.841,-19.534 -47.626,-17.663 -51.378,-13.936C-55.141,-10.208 -57.025,-5.415 -57.025,0.452C-57.025,6.256 -55.141,10.958 -51.378,14.57C-47.626,18.185 -42.841,19.987 -37.031,19.987L-20.074,19.987C-14.212,19.987 -9.402,18.185 -5.647,14.57C-1.877,10.958 0,6.256 0,0.452M10.482,-0.439C10.482,8.506 7.607,15.911 1.868,21.762C-3.877,27.625 -11.193,30.558 -20.074,30.558L-37.031,30.558C-45.853,30.558 -53.16,27.625 -58.933,21.762C-64.7,15.911 -67.589,8.506 -67.589,-0.439C-67.589,-9.324 -64.733,-16.484 -59.016,-21.938C-53.304,-27.376 -45.985,-30.106 -37.031,-30.106L-20.074,-30.106C-11.071,-30.106 -3.727,-27.376 1.957,-21.938C7.638,-16.484 10.482,-9.324 10.482,-0.439" style="fill:white;fill-rule:nonzero;"/>
        </g>
        <g transform="matrix(1,0,0,1,0,-31.417)">
            <path d="M823.317,208.554L788.679,208.554L788.679,197.984L823.317,197.984L823.317,208.554ZM826.062,183.948L784.24,183.948L784.24,234.041L773.672,234.041L773.672,173.376L826.062,173.376L826.062,183.948Z" style="fill:white;fill-rule:nonzero;"/>
        </g>
        <g transform="matrix(1,0,0,1,890.106,192.051)">
            <path d="M0,-39.52L-23.893,-39.52L-23.893,10.572L-34.374,10.572L-34.374,-39.52L-58.356,-39.52L-58.356,-50.092L0,-50.092L0,-39.52Z" style="fill:white;fill-rule:nonzero;"/>
        </g>
        <g transform="matrix(1,0,0,1,0,161.789)">
            <path d="M325.786,108.974L312.417,108.974L312.417,104.895L325.786,104.895L325.786,108.974ZM326.849,118.812L306.624,118.812L306.624,95.399L326.849,95.399L326.849,99.478L310.704,99.478L310.704,114.733L326.849,114.733L326.849,118.812Z" style="fill:rgb(0,101,178);fill-rule:nonzero;"/>
        </g>
        <g transform="matrix(1,0,0,1,380.804,257.188)">
            <path d="M0,23.413L-20.19,23.413L-20.19,0L-16.111,0L-16.111,19.334L0,19.334L0,23.413Z" style="fill:rgb(0,101,178);fill-rule:nonzero;"/>
        </g>
        <g transform="matrix(1,0,0,1,0,161.789)">
            <path d="M433.287,108.974L419.918,108.974L419.918,104.895L433.287,104.895L433.287,108.974ZM434.35,118.812L414.125,118.812L414.125,95.399L434.35,95.399L434.35,99.478L418.204,99.478L418.204,114.733L434.35,114.733L434.35,118.812Z" style="fill:rgb(0,101,178);fill-rule:nonzero;"/>
        </g>
        <g transform="matrix(1,0,0,1,493.584,257.188)">
            <path d="M0,23.413L-13.196,23.413C-16.603,23.413 -19.42,22.282 -21.647,20.02C-23.876,17.756 -24.989,14.901 -24.989,11.45C-24.989,8.022 -23.887,5.257 -21.681,3.154C-19.476,1.052 -16.649,0 -13.196,0L0,0L0,4.079L-13.196,4.079C-15.437,4.079 -17.282,4.799 -18.733,6.239C-20.184,7.679 -20.911,9.53 -20.911,11.793C-20.911,14.032 -20.184,15.849 -18.733,17.243C-17.282,18.637 -15.437,19.334 -13.196,19.334L0,19.334L0,23.413Z" style="fill:rgb(0,101,178);fill-rule:nonzero;"/>
        </g>
        <g transform="matrix(1,0,0,1,548.877,276.522)">
            <path d="M0,-15.255L-9.221,-15.255L-9.221,4.079L-13.265,4.079L-13.265,-15.255L-22.522,-15.255L-22.522,-19.334L0,-19.334L0,-15.255Z" style="fill:rgb(0,101,178);fill-rule:nonzero;"/>
        </g>
        <g transform="matrix(1,0,0,1,609.379,257.188)">
            <path d="M0,23.413L-6.031,23.413L-12.58,16.832L-21.39,16.832L-21.39,12.786L-10.42,12.786C-8.911,12.786 -7.644,12.455 -6.613,11.793C-5.448,11.016 -4.865,9.907 -4.865,8.467C-4.865,5.542 -6.718,4.079 -10.42,4.079L-23.788,4.079L-23.788,23.413L-27.868,23.413L-27.868,0L-11.071,0C-8.055,0 -5.62,0.651 -3.77,1.954C-1.644,3.44 -0.583,5.622 -0.583,8.501C-0.583,10.467 -1.199,12.158 -2.432,13.575C-3.577,14.901 -5.129,15.826 -7.095,16.352L0,23.413Z" style="fill:rgb(0,101,178);fill-rule:nonzero;"/>
        </g>
        <g transform="matrix(1,0,0,1,668.959,268.808)">
            <path d="M0,0.172C0,-2.091 -0.727,-3.942 -2.178,-5.382C-3.629,-6.821 -5.485,-7.541 -7.748,-7.541L-14.294,-7.541C-16.534,-7.541 -18.38,-6.821 -19.831,-5.382C-21.282,-3.942 -22.009,-2.091 -22.009,0.172C-22.009,2.411 -21.282,4.229 -19.831,5.622C-18.38,7.016 -16.534,7.713 -14.294,7.713L-7.748,7.713C-5.485,7.713 -3.629,7.016 -2.178,5.622C-0.727,4.229 0,2.411 0,0.172M4.046,-0.171C4.046,3.28 2.936,6.136 0.721,8.399C-1.497,10.661 -4.319,11.792 -7.748,11.792L-14.294,11.792C-17.699,11.792 -20.515,10.661 -22.745,8.399C-24.972,6.136 -26.086,3.28 -26.086,-0.171C-26.086,-3.599 -24.985,-6.364 -22.779,-8.467C-20.574,-10.569 -17.745,-11.62 -14.294,-11.62L-7.748,-11.62C-4.273,-11.62 -1.439,-10.569 0.755,-8.467C2.948,-6.364 4.046,-3.599 4.046,-0.171" style="fill:rgb(0,101,178);fill-rule:nonzero;"/>
        </g>
        <g transform="matrix(1,0,0,1,730.011,259.451)">
            <path d="M0,19.128C0,20.636 -0.515,21.39 -1.543,21.39C-2.298,21.39 -3.144,20.922 -4.08,19.985L-19.095,4.902L-19.095,21.15L-23.138,21.15L-23.138,-0.24C-23.138,-0.789 -22.991,-1.262 -22.693,-1.663C-22.396,-2.062 -21.972,-2.262 -21.426,-2.262C-20.672,-2.262 -19.896,-1.863 -19.095,-1.063L-4.08,13.986L-4.08,-2.262L0,-2.262L0,19.128Z" style="fill:rgb(0,101,178);fill-rule:nonzero;"/>
        </g>
        <g transform="matrix(-1,0,0,1,1536.98,161.789)">
            <rect x="766.45" y="95.399" width="4.08" height="23.413" style="fill:rgb(0,101,178);"/>
        </g>
        <g transform="matrix(1,0,0,1,830.757,257.188)">
            <path d="M0,23.413L-13.196,23.413C-16.601,23.413 -19.417,22.282 -21.647,20.02C-23.874,17.756 -24.988,14.901 -24.988,11.45C-24.988,8.022 -23.887,5.257 -21.681,3.154C-19.476,1.052 -16.647,0 -13.196,0L0,0L0,4.079L-13.196,4.079C-15.436,4.079 -17.282,4.799 -18.733,6.239C-20.184,7.679 -20.911,9.53 -20.911,11.793C-20.911,14.032 -20.184,15.849 -18.733,17.243C-17.282,18.637 -15.436,19.334 -13.196,19.334L0,19.334L0,23.413Z" style="fill:rgb(0,101,178);fill-rule:nonzero;"/>
        </g>
        <g transform="matrix(1,0,0,1,889.99,264.422)">
            <path d="M0,8.946C0,11.163 -0.788,12.945 -2.365,14.293C-3.871,15.551 -5.758,16.179 -8.021,16.179L-25.88,16.179L-25.88,12.1L-8.021,12.1C-6.902,12.1 -5.929,11.849 -5.107,11.346C-4.169,10.729 -3.699,9.895 -3.699,8.843C-3.699,7.793 -4.181,6.981 -5.141,6.409C-5.942,5.93 -6.902,5.69 -8.021,5.69L-19.058,5.69C-21.092,5.69 -22.795,5.13 -24.166,4.01C-25.629,2.799 -26.359,1.199 -26.359,-0.789C-26.359,-2.754 -25.629,-4.342 -24.166,-5.554C-22.795,-6.674 -21.092,-7.233 -19.058,-7.233L-1.405,-7.233L-1.405,-3.155L-19.058,-3.155C-19.834,-3.155 -20.497,-2.937 -21.046,-2.503C-21.595,-2.069 -21.868,-1.486 -21.868,-0.755C-21.868,-0.001 -21.595,0.582 -21.046,0.994C-20.497,1.405 -19.834,1.61 -19.058,1.61L-8.021,1.61C-5.758,1.61 -3.871,2.262 -2.365,3.564C-0.788,4.935 0,6.73 0,8.946" style="fill:rgb(0,101,178);fill-rule:nonzero;"/>
        </g>
        <g transform="matrix(-1,0,0,1,340.604,15.854)">
            <rect x="69.898" y="79.67" width="200.808" height="200.806" style="fill:white;stroke:rgb(0,101,178);stroke-width:3px;"/>
        </g>
        <g>
            <g transform="matrix(1,0,0,1,129.96,225.759)">
                <path d="M0,39.336C-11.751,32.511 -21.916,22.588 -29.16,9.945C-29.163,9.939 -29.163,9.939 -29.166,9.934L-11.79,0C-6.353,9.477 1.273,16.923 10.085,22.043L0,39.336Z" style="fill:rgb(0,101,178);fill-rule:nonzero;"/>
            </g>
            <g transform="matrix(1,0,0,1,100.794,195.552)">
                <path d="M0,40.141C-7.263,27.465 -10.673,13.628 -10.604,0.001L-10.575,0L9.423,0.086C9.36,10.313 11.923,20.689 17.373,30.202L17.376,30.208L0,40.141Z" style="fill:white;fill-rule:nonzero;"/>
            </g>
            <g transform="matrix(0.990288,-0.139033,-0.139033,-0.990288,142.212,246.827)">
                <path d="M-2.281,-0.664C-10.296,5.631 -16.812,14.065 -20.879,24.205L-2.281,31.637C0.425,24.879 4.769,19.256 10.11,15.059L-2.281,-0.664Z" style="fill:rgb(0,101,178);fill-rule:nonzero;"/>
            </g>
            <g transform="matrix(1,0,0,1,118.167,195.644)">
                <path d="M0,30.11C-5.45,20.597 -8.013,10.221 -7.95,-0.006L12.072,0.083C12.04,6.902 13.746,13.816 17.378,20.154L17.387,20.17L0.003,30.116L0,30.11Z" style="fill:white;fill-rule:nonzero;"/>
            </g>
            <g transform="matrix(0.868169,-0.496268,-0.496268,-0.868169,135.999,222.248)">
                <path d="M2.806,5.806L22.828,5.806C22.837,2.173 23.813,-1.23 25.512,-4.17L8.169,-14.184C4.764,-8.306 2.814,-1.473 2.806,5.806" style="fill:rgb(0,101,178);fill-rule:nonzero;"/>
            </g>
            <g transform="matrix(1,0,0,1,130.239,215.815)">
                <path d="M0,-20.088L20.03,-19.997C20.007,-16.587 20.866,-13.134 22.685,-9.959C22.688,-9.953 22.694,-9.942 22.697,-9.937L5.316,0L5.306,-0.017C1.675,-6.355 -0.032,-13.269 0,-20.088" style="fill:white;fill-rule:nonzero;"/>
            </g>
            <g transform="matrix(1,0,0,1,152.923,195.84)">
                <path d="M0,10.016C-1.819,6.841 -2.678,3.388 -2.655,-0.022L17.347,0.07L17.367,0.08L17.371,0.086L17.352,0.118L0.013,10.038C0.009,10.033 0.003,10.022 0,10.016" style="fill:white;fill-rule:nonzero;"/>
            </g>
            <g transform="matrix(1,0,0,1,160.217,195.958)">
                <path d="M0,17.249C-2.934,15.54 -5.469,13.069 -7.281,9.92L10.059,0L0,17.249Z" style="fill:rgb(0,101,178);fill-rule:nonzero;"/>
            </g>
            <g transform="matrix(1,0,0,1,170.27,195.92)">
                <path d="M0,-0.01L0.023,-0.008L0.021,0L0,-0.01Z" style="fill:white;fill-rule:nonzero;"/>
            </g>
            <g transform="matrix(1,0,0,1,170.294,195.92)">
                <path d="M0,0.006L-0.003,0L0.006,0.003L0,0.006Z" style="fill:white;fill-rule:nonzero;"/>
            </g>
            <g transform="matrix(0.21693,-0.976187,-0.976187,-0.21693,170.302,195.922)">
                <rect x="-0.001" y="0.002" width="0.017" height="0.009" style="fill:white;"/>
            </g>
            <g transform="matrix(1,0,0,1,170.299,195.916)">
                <path d="M0,0.007L0.005,-0.01L0.022,-0.006L0.032,0.011L0.02,0.017L0,0.007Z" style="fill:white;fill-rule:nonzero;"/>
            </g>
            <g transform="matrix(1,0,0,1,170.344,195.927)">
                <path d="M0,0.022L-0.024,0.006L-0.013,0L0,0.022Z" style="fill:white;fill-rule:nonzero;"/>
            </g>
            <g transform="matrix(1,0,0,1,170.321,195.893)">
                <path d="M0,0.017L-0.017,0.012L-0.009,0L0,0.017Z" style="fill:white;fill-rule:nonzero;"/>
            </g>
            <g transform="matrix(1,0,0,1,170.331,195.908)">
                <path d="M0,0.019L-0.009,0.002L0.033,0L0,0.019Z" style="fill:white;fill-rule:nonzero;"/>
            </g>
        </g>
        <g transform="matrix(-0.868243,0.496139,0.496139,0.868243,100.772,235.715)">
            <path d="M-0.03,-0.008L0.002,-0.008" style="fill:none;fill-rule:nonzero;stroke:rgb(0,101,178);stroke-width:1.5px;"/>
        </g>
        <g transform="matrix(-0.860927,0.508729,0.508729,0.860927,198.909,197.19)">
            <path d="M-56.129,-14.487L-56.104,-14.487L-36.084,-14.775L-16.059,-15.057L3.96,-15.344" style="fill:none;fill-rule:nonzero;stroke:rgb(0,101,178);stroke-width:1.5px;"/>
        </g>
        <g transform="matrix(-0.503654,0.863906,0.863906,0.503654,159.884,265.34)">
            <path d="M-45.205,-25.969L-25.177,-25.969L14.86,-25.975L14.92,-25.972" style="fill:none;fill-rule:nonzero;stroke:rgb(0,101,178);stroke-width:1.5px;"/>
        </g>
        <g transform="matrix(-0.5547,0.83205,0.83205,0.5547,208.732,179.638)">
            <path d="M-45.134,-27.765L-45.105,-27.765L-25.115,-26.561L-5.131,-25.359L14.859,-24.155" style="fill:none;fill-rule:nonzero;stroke:rgb(0,101,178);stroke-width:1.5px;"/>
        </g>
        <g transform="matrix(-0.00459627,0.999989,0.999989,0.00459627,200.135,246.268)">
            <path d="M-30.192,-30.067L-10.176,-30.067L9.843,-30.058L29.864,-30.054L29.929,-30.052" style="fill:none;fill-rule:nonzero;stroke:rgb(0,101,178);stroke-width:1.5px;"/>
        </g>
        <g transform="matrix(1,0,0,1,170.643,175.876)">
            <path d="M0,-60.069L-0.088,-40.048L-0.171,-20.03L-0.262,0" style="fill:none;fill-rule:nonzero;stroke:rgb(0,101,178);stroke-width:1.5px;"/>
        </g>
        <g transform="matrix(0.496031,0.868305,0.868305,-0.496031,210.431,213.485)">
            <path d="M-15.147,-26.103L4.868,-26.103L24.889,-26.098L44.904,-26.098L44.974,-26.098" style="fill:none;fill-rule:nonzero;stroke:rgb(0,101,178);stroke-width:1.5px;"/>
        </g>
        <g transform="matrix(0.447214,0.894427,0.894427,-0.447214,162.13,127.429)">
            <path d="M-15.085,-27.745L-15.078,-27.745L4.924,-26.636L24.895,-25.523L44.892,-24.408" style="fill:none;fill-rule:nonzero;stroke:rgb(0,101,178);stroke-width:1.5px;"/>
        </g>
        <g transform="matrix(1,0,0,1,187.584,236.279)">
            <path d="M0,-30.274L17.299,-20.178L34.596,-10.088L51.883,0" style="fill:none;fill-rule:nonzero;stroke:rgb(0,101,178);stroke-width:1.5px;"/>
        </g>
        <g transform="matrix(1,0,0,1,101.111,185.822)">
            <path d="M0,-30.266L17.279,-20.18L34.572,-10.096L51.872,0" style="fill:none;fill-rule:nonzero;stroke:rgb(0,101,178);stroke-width:1.5px;"/>
        </g>
        <g transform="matrix(0.99999,0.00454314,0.00454314,-0.99999,190.321,195.861)">
            <path d="M-0,-0.136L20.03,-0.136L40.051,-0.134L60.072,-0.132L60.087,-0.131" style="fill:none;fill-rule:nonzero;stroke:rgb(0,101,178);stroke-width:1.5px;"/>
        </g>
        <g transform="matrix(1,0,0,1,90.2192,195.818)">
            <path d="M0,-0.266L19.998,-0.179L40.02,-0.091L60.049,0" style="fill:none;fill-rule:nonzero;stroke:rgb(0,101,178);stroke-width:1.5px;"/>
        </g>
        <g transform="matrix(1,0,0,1,180.391,213.205)">
            <path d="M0,-34.601C2.93,-32.898 5.464,-30.418 7.27,-27.266C7.279,-27.249 7.292,-27.227 7.302,-27.21C9.105,-24.049 9.952,-20.603 9.929,-17.208C9.914,-13.693 8.967,-10.236 7.193,-7.199C5.489,-4.269 3.013,-1.73 -0.14,0.076L-0.145,0.079C-3.311,1.9 -6.777,2.751 -10.183,2.734C-13.69,2.708 -17.144,1.766 -20.174,0.003C-23.108,-1.706 -25.644,-4.177 -27.455,-7.326C-27.458,-7.332 -27.465,-7.343 -27.468,-7.349C-29.287,-10.523 -30.145,-13.977 -30.123,-17.387C-30.111,-20.893 -29.172,-24.352 -27.409,-27.382C-25.703,-30.321 -23.224,-32.869 -20.061,-34.682C-20.044,-34.691 -20.033,-34.697 -20.017,-34.707C-16.852,-36.505 -13.406,-37.352 -10.01,-37.328C-6.496,-37.314 -3.034,-36.369 0,-34.601Z" style="fill:none;fill-rule:nonzero;stroke:rgb(0,101,178);stroke-width:1.5px;"/>
        </g>
        <g transform="matrix(1,0,0,1,190.478,230.492)">
            <path d="M0,-69.19C5.867,-65.773 10.939,-60.816 14.558,-54.5C14.571,-54.478 14.583,-54.456 14.596,-54.434C18.207,-48.106 19.907,-41.203 19.871,-34.404C19.826,-27.379 17.939,-20.464 14.405,-14.391C10.984,-8.529 6.034,-3.46 -0.277,0.156C-0.282,0.159 -0.293,0.165 -0.299,0.168C-6.632,3.796 -13.549,5.497 -20.362,5.462C-27.375,5.425 -34.282,3.54 -40.348,0.017C-46.221,-3.397 -51.305,-8.361 -54.924,-14.677L-54.933,-14.694C-58.565,-21.032 -60.271,-27.946 -60.24,-34.765C-60.205,-41.783 -58.327,-48.701 -54.795,-54.765C-51.384,-60.643 -46.426,-65.724 -40.104,-69.346C-40.082,-69.359 -40.065,-69.368 -40.043,-69.381C-33.707,-72.99 -26.809,-74.687 -20.007,-74.645C-12.98,-74.608 -6.07,-72.718 0,-69.19Z" style="fill:none;fill-rule:nonzero;stroke:rgb(0,101,178);stroke-width:1.5px;"/>
        </g>
        <g transform="matrix(1,0,0,1,200.563,247.792)">
            <path d="M0,-103.783C8.806,-98.66 16.426,-91.225 21.854,-81.751C21.867,-81.729 21.883,-81.701 21.895,-81.679C27.322,-72.182 29.866,-61.825 29.808,-51.615C29.754,-41.079 26.919,-30.707 21.617,-21.6C16.487,-12.805 9.055,-5.194 -0.414,0.231C-0.425,0.237 -0.436,0.244 -0.447,0.25C-9.95,5.68 -20.315,8.236 -30.53,8.181C-41.052,8.126 -51.418,5.302 -60.518,0.011C-69.33,-5.109 -76.956,-12.555 -82.393,-22.032L-82.396,-22.037C-87.846,-31.55 -90.409,-41.927 -90.345,-52.153C-90.294,-62.681 -87.47,-73.046 -82.173,-82.15C-77.045,-90.959 -69.61,-98.579 -60.127,-104.005C-60.105,-104.018 -60.077,-104.033 -60.055,-104.046C-50.563,-109.469 -40.209,-112.019 -30.009,-111.963C-19.476,-111.915 -9.101,-109.088 0,-103.783Z" style="fill:none;fill-rule:nonzero;stroke:rgb(0,101,178);stroke-width:1.5px;"/>
        </g>
        <g transform="matrix(1,0,0,1,210.65,265.082)">
            <path d="M0,-138.375C11.74,-131.543 21.899,-121.632 29.133,-109.005C29.152,-108.972 29.171,-108.939 29.19,-108.906C36.418,-96.239 39.816,-82.424 39.742,-68.817C39.665,-54.769 35.891,-40.937 28.82,-28.797C21.988,-17.072 12.075,-6.927 -0.546,0.304C-0.568,0.317 -0.584,0.326 -0.606,0.339C-13.273,7.581 -27.089,10.988 -40.705,10.912C-54.742,10.842 -68.561,7.076 -80.69,0.014C-92.441,-6.812 -102.606,-16.734 -109.849,-29.378C-109.853,-29.383 -109.853,-29.383 -109.856,-29.389C-117.118,-42.065 -120.529,-55.902 -120.459,-69.528C-120.388,-83.574 -116.611,-97.4 -109.551,-109.533C-102.722,-121.279 -92.805,-131.441 -80.173,-138.678C-80.14,-138.697 -80.112,-138.713 -80.079,-138.732C-67.416,-145.965 -53.615,-149.363 -40.008,-149.289C-25.968,-149.214 -12.137,-145.44 0,-138.375Z" style="fill:none;fill-rule:nonzero;stroke:rgb(0,101,178);stroke-width:1.5px;"/>
        </g>
    </g>
</svg>
