<?xml version="1.0" encoding="UTF-8" standalone="no"?>
<!DOCTYPE svg PUBLIC "-//W3C//DTD SVG 1.1//EN" "http://www.w3.org/Graphics/SVG/1.1/DTD/svg11.dtd">
<svg width="100%" height="100%" viewBox="0 0 908 214" version="1.1" xmlns="http://www.w3.org/2000/svg" xmlns:xlink="http://www.w3.org/1999/xlink" xml:space="preserve" xmlns:serif="http://www.serif.com/" style="fill-rule:evenodd;clip-rule:evenodd;">
    <g transform="matrix(1,0,0,1,-29.795,72.4497)">
        <path d="M325.786,108.974L312.417,108.974L312.417,104.895L325.786,104.895L325.786,108.974ZM326.849,118.812L306.624,118.812L306.624,95.399L326.849,95.399L326.849,99.478L310.704,99.478L310.704,114.733L326.849,114.733L326.849,118.812Z" style="fill:white;fill-rule:nonzero;"/>
    </g>
    <g transform="matrix(1,0,0,1,351.009,167.849)">
        <path d="M0,23.413L-20.19,23.413L-20.19,0L-16.111,0L-16.111,19.334L0,19.334L0,23.413Z" style="fill:white;fill-rule:nonzero;"/>
    </g>
    <g transform="matrix(1,0,0,1,-29.795,72.4497)">
        <path d="M433.287,108.974L419.918,108.974L419.918,104.895L433.287,104.895L433.287,108.974ZM434.35,118.812L414.125,118.812L414.125,95.399L434.35,95.399L434.35,99.478L418.204,99.478L418.204,114.733L434.35,114.733L434.35,118.812Z" style="fill:white;fill-rule:nonzero;"/>
    </g>
    <g transform="matrix(1,0,0,1,463.789,167.849)">
        <path d="M0,23.413L-13.196,23.413C-16.603,23.413 -19.42,22.282 -21.647,20.02C-23.876,17.756 -24.989,14.901 -24.989,11.45C-24.989,8.022 -23.887,5.257 -21.681,3.154C-19.476,1.052 -16.649,0 -13.196,0L0,0L0,4.079L-13.196,4.079C-15.437,4.079 -17.282,4.799 -18.733,6.239C-20.184,7.679 -20.911,9.53 -20.911,11.793C-20.911,14.032 -20.184,15.849 -18.733,17.243C-17.282,18.637 -15.437,19.334 -13.196,19.334L0,19.334L0,23.413Z" style="fill:white;fill-rule:nonzero;"/>
    </g>
    <g transform="matrix(1,0,0,1,519.082,187.183)">
        <path d="M0,-15.255L-9.221,-15.255L-9.221,4.079L-13.265,4.079L-13.265,-15.255L-22.522,-15.255L-22.522,-19.334L0,-19.334L0,-15.255Z" style="fill:white;fill-rule:nonzero;"/>
    </g>
    <g transform="matrix(1,0,0,1,579.584,167.849)">
        <path d="M0,23.413L-6.031,23.413L-12.58,16.832L-21.39,16.832L-21.39,12.786L-10.42,12.786C-8.911,12.786 -7.644,12.455 -6.613,11.793C-5.448,11.016 -4.865,9.907 -4.865,8.467C-4.865,5.542 -6.718,4.079 -10.42,4.079L-23.788,4.079L-23.788,23.413L-27.868,23.413L-27.868,0L-11.071,0C-8.055,0 -5.62,0.651 -3.77,1.954C-1.644,3.44 -0.583,5.622 -0.583,8.501C-0.583,10.467 -1.199,12.158 -2.432,13.575C-3.577,14.901 -5.129,15.826 -7.095,16.352L0,23.413Z" style="fill:white;fill-rule:nonzero;"/>
    </g>
    <g transform="matrix(1,0,0,1,639.164,179.469)">
        <path d="M0,0.172C0,-2.091 -0.727,-3.942 -2.178,-5.382C-3.629,-6.821 -5.485,-7.541 -7.748,-7.541L-14.294,-7.541C-16.534,-7.541 -18.38,-6.821 -19.831,-5.382C-21.282,-3.942 -22.009,-2.091 -22.009,0.172C-22.009,2.411 -21.282,4.229 -19.831,5.622C-18.38,7.016 -16.534,7.713 -14.294,7.713L-7.748,7.713C-5.485,7.713 -3.629,7.016 -2.178,5.622C-0.727,4.229 0,2.411 0,0.172M4.046,-0.171C4.046,3.28 2.936,6.136 0.721,8.399C-1.497,10.661 -4.319,11.792 -7.748,11.792L-14.294,11.792C-17.699,11.792 -20.515,10.661 -22.745,8.399C-24.972,6.136 -26.086,3.28 -26.086,-0.171C-26.086,-3.599 -24.985,-6.364 -22.779,-8.467C-20.574,-10.569 -17.745,-11.62 -14.294,-11.62L-7.748,-11.62C-4.273,-11.62 -1.439,-10.569 0.755,-8.467C2.948,-6.364 4.046,-3.599 4.046,-0.171" style="fill:white;fill-rule:nonzero;"/>
    </g>
    <g transform="matrix(1,0,0,1,700.216,170.111)">
        <path d="M0,19.128C0,20.636 -0.515,21.39 -1.543,21.39C-2.298,21.39 -3.144,20.922 -4.08,19.985L-19.095,4.902L-19.095,21.15L-23.138,21.15L-23.138,-0.24C-23.138,-0.789 -22.991,-1.262 -22.693,-1.663C-22.396,-2.062 -21.972,-2.262 -21.426,-2.262C-20.672,-2.262 -19.896,-1.863 -19.095,-1.063L-4.08,13.986L-4.08,-2.262L0,-2.262L0,19.128Z" style="fill:white;fill-rule:nonzero;"/>
    </g>
    <g transform="matrix(-1,0,0,1,1507.18,72.4497)">
        <rect x="766.45" y="95.399" width="4.08" height="23.413" style="fill:white;"/>
    </g>
    <g transform="matrix(1,0,0,1,800.962,167.849)">
        <path d="M0,23.413L-13.196,23.413C-16.601,23.413 -19.417,22.282 -21.647,20.02C-23.874,17.756 -24.988,14.901 -24.988,11.45C-24.988,8.022 -23.887,5.257 -21.681,3.154C-19.476,1.052 -16.647,0 -13.196,0L0,0L0,4.079L-13.196,4.079C-15.436,4.079 -17.282,4.799 -18.733,6.239C-20.184,7.679 -20.911,9.53 -20.911,11.793C-20.911,14.032 -20.184,15.849 -18.733,17.243C-17.282,18.637 -15.436,19.334 -13.196,19.334L0,19.334L0,23.413Z" style="fill:white;fill-rule:nonzero;"/>
    </g>
    <g transform="matrix(1,0,0,1,860.195,175.082)">
        <path d="M0,8.946C0,11.163 -0.788,12.945 -2.365,14.293C-3.871,15.551 -5.758,16.179 -8.021,16.179L-25.88,16.179L-25.88,12.1L-8.021,12.1C-6.902,12.1 -5.929,11.849 -5.107,11.346C-4.169,10.729 -3.699,9.895 -3.699,8.843C-3.699,7.793 -4.181,6.981 -5.141,6.409C-5.942,5.93 -6.902,5.69 -8.021,5.69L-19.058,5.69C-21.092,5.69 -22.795,5.13 -24.166,4.01C-25.629,2.799 -26.359,1.199 -26.359,-0.789C-26.359,-2.754 -25.629,-4.342 -24.166,-5.554C-22.795,-6.674 -21.092,-7.233 -19.058,-7.233L-1.405,-7.233L-1.405,-3.155L-19.058,-3.155C-19.834,-3.155 -20.497,-2.937 -21.046,-2.503C-21.595,-2.069 -21.868,-1.486 -21.868,-0.755C-21.868,-0.001 -21.595,0.582 -21.046,0.994C-20.497,1.405 -19.834,1.61 -19.058,1.61L-8.021,1.61C-5.758,1.61 -3.871,2.262 -2.365,3.564C-0.788,4.935 0,6.73 0,8.946" style="fill:white;fill-rule:nonzero;"/>
    </g>
    <g transform="matrix(-1,0,0,1,310.809,-73.4853)">
        <rect x="69.898" y="79.67" width="200.808" height="200.806" style="fill:none;stroke:white;stroke-width:3px;"/>
    </g>
    <path d="M40.103,19.817L40.103,146.713L0,146.713L0,19.817L40.103,19.817ZM240.911,19.817L907.087,19.817L907.087,146.713L240.911,146.713L240.911,19.817ZM363.207,108.046C363.207,111.956 361.878,113.908 359.211,113.908C357.264,113.908 355.065,112.687 352.641,110.265L313.74,71.181L313.74,113.284L303.259,113.284L303.259,57.862C303.259,56.443 303.642,55.218 304.411,54.175C305.188,53.139 306.277,52.619 307.697,52.619C309.657,52.619 311.67,53.662 313.74,55.734L352.641,94.722L352.641,52.619L363.207,52.619L363.207,108.046ZM277.769,52.621L288.34,52.621L288.34,113.285L277.769,113.285L277.769,52.621ZM796.267,63.192L754.445,63.192L754.445,113.285L743.877,113.285L743.877,52.62L796.267,52.62L796.267,63.192ZM491.813,113.285L439.414,113.285L439.414,52.62L491.813,52.62L491.813,63.192L449.974,63.192L449.974,102.714L491.813,102.714L491.813,113.285ZM574.68,113.284L559.051,113.284L542.08,96.233L519.255,96.233L519.255,85.755L547.671,85.755C551.596,85.755 554.872,84.89 557.536,83.178C560.56,81.163 562.073,78.293 562.073,74.56C562.073,66.983 557.272,63.192 547.671,63.192L513.04,63.192L513.04,113.284L502.474,113.284L502.474,52.62L545.988,52.62C553.813,52.62 560.119,54.313 564.91,57.684C570.413,61.535 573.171,67.19 573.171,74.653C573.171,79.744 571.563,84.123 568.367,87.798C565.407,91.232 561.386,93.632 556.29,94.986L574.68,113.284ZM735.172,82.287C735.172,91.232 732.297,98.637 726.558,104.488C720.813,110.351 713.497,113.284 704.616,113.284L687.659,113.284C678.837,113.284 671.53,110.351 665.757,104.488C659.99,98.637 657.101,91.232 657.101,82.287C657.101,73.402 659.957,66.242 665.674,60.788C671.386,55.35 678.705,52.62 687.659,52.62L704.616,52.62C713.619,52.62 720.963,55.35 726.647,60.788C732.328,66.242 735.172,73.402 735.172,82.287ZM432.216,63.192L408.327,63.192L408.327,113.284L397.844,113.284L397.844,63.192L373.867,63.192L373.867,52.62L432.216,52.62L432.216,63.192ZM860.311,63.192L836.418,63.192L836.418,113.284L825.937,113.284L825.937,63.192L801.955,63.192L801.955,52.62L860.311,52.62L860.311,63.192ZM649.368,94.548C649.368,100.289 647.328,104.904 643.248,108.399C639.337,111.658 634.451,113.284 628.583,113.284L582.316,113.284L582.316,102.714L628.583,102.714C631.494,102.714 634.009,102.063 636.132,100.764C638.567,99.163 639.782,97.002 639.782,94.276C639.782,91.556 638.54,89.458 636.052,87.973C633.985,86.732 631.494,86.111 628.583,86.111L599.987,86.111C594.711,86.111 590.303,84.657 586.754,81.757C582.963,78.618 581.073,74.476 581.073,69.318C581.073,64.23 582.963,60.112 586.754,56.976C590.303,54.078 594.711,52.62 599.987,52.62L645.736,52.62L645.736,63.192L599.987,63.192C597.981,63.192 596.27,63.755 594.849,64.881C593.414,66.006 592.708,67.517 592.708,69.402C592.708,71.367 593.414,72.875 594.849,73.941C596.27,75.011 597.981,75.537 599.987,75.537L628.583,75.537C634.451,75.537 639.337,77.227 643.248,80.597C647.328,84.16 649.368,88.804 649.368,94.548ZM724.69,83.178C724.69,77.311 722.813,72.518 719.043,68.79C715.288,65.063 710.478,63.192 704.616,63.192L687.659,63.192C681.849,63.192 677.064,65.063 673.312,68.79C669.549,72.518 667.665,77.311 667.665,83.178C667.665,88.982 669.549,93.684 673.312,97.296C677.064,100.911 681.849,102.713 687.659,102.713L704.616,102.713C710.478,102.713 715.288,100.911 719.043,97.296C722.813,93.684 724.69,88.982 724.69,83.178ZM793.522,87.798L758.884,87.798L758.884,77.228L793.522,77.228L793.522,87.798ZM489.059,87.798L454.415,87.798L454.415,77.228L489.059,77.228L489.059,87.798Z" style="fill:white;"/>
    <g transform="matrix(1,0,0,1,-29.795,-89.3393)">
        <g transform="matrix(1,0,0,1,129.96,225.759)">
            <path d="M0,39.336C-11.751,32.511 -21.916,22.588 -29.16,9.945C-29.163,9.939 -29.163,9.939 -29.166,9.934L-11.79,0C-6.353,9.477 1.273,16.923 10.085,22.043L0,39.336Z" style="fill:white;fill-rule:nonzero;"/>
        </g>
        <g transform="matrix(0.990288,-0.139033,-0.139033,-0.990288,142.212,246.827)">
            <path d="M-2.281,-0.664C-10.296,5.631 -16.812,14.065 -20.879,24.205L-2.281,31.637C0.425,24.879 4.769,19.256 10.11,15.059L-2.281,-0.664Z" style="fill:white;fill-rule:nonzero;"/>
        </g>
        <g transform="matrix(0.868169,-0.496268,-0.496268,-0.868169,135.999,222.248)">
            <path d="M2.806,5.806L22.828,5.806C22.837,2.173 23.813,-1.23 25.512,-4.17L8.169,-14.184C4.764,-8.306 2.814,-1.473 2.806,5.806" style="fill:white;fill-rule:nonzero;"/>
        </g>
        <g transform="matrix(1,0,0,1,160.217,195.958)">
            <path d="M0,17.249C-2.934,15.54 -5.469,13.069 -7.281,9.92L10.059,0L0,17.249Z" style="fill:white;fill-rule:nonzero;"/>
        </g>
    </g>
    <g transform="matrix(-0.868243,0.496139,0.496139,0.868243,70.9772,146.376)">
        <path d="M-0.03,-0.008L0.002,-0.008" style="fill:none;fill-rule:nonzero;stroke:white;stroke-width:1.5px;"/>
    </g>
    <g transform="matrix(-0.860927,0.508729,0.508729,0.860927,169.114,107.851)">
        <path d="M-56.129,-14.487L-56.104,-14.487L-36.084,-14.775L-16.059,-15.057L3.96,-15.344" style="fill:none;fill-rule:nonzero;stroke:white;stroke-width:1.5px;"/>
    </g>
    <g transform="matrix(-0.503654,0.863906,0.863906,0.503654,130.089,176)">
        <path d="M-45.205,-25.969L-25.177,-25.969L14.86,-25.975L14.92,-25.972" style="fill:none;fill-rule:nonzero;stroke:white;stroke-width:1.5px;"/>
    </g>
    <g transform="matrix(-0.5547,0.83205,0.83205,0.5547,178.937,90.299)">
        <path d="M-45.134,-27.765L-45.105,-27.765L-25.115,-26.561L-5.131,-25.359L14.859,-24.155" style="fill:none;fill-rule:nonzero;stroke:white;stroke-width:1.5px;"/>
    </g>
    <g transform="matrix(-0.00459627,0.999989,0.999989,0.00459627,170.34,156.929)">
        <path d="M-30.192,-30.067L-10.176,-30.067L9.843,-30.058L29.864,-30.054L29.929,-30.052" style="fill:none;fill-rule:nonzero;stroke:white;stroke-width:1.5px;"/>
    </g>
    <g transform="matrix(1,0,0,1,140.848,86.5369)">
        <path d="M0,-60.069L-0.088,-40.048L-0.171,-20.03L-0.262,0" style="fill:none;fill-rule:nonzero;stroke:white;stroke-width:1.5px;"/>
    </g>
    <g transform="matrix(0.496031,0.868305,0.868305,-0.496031,180.636,124.146)">
        <path d="M-15.147,-26.103L4.868,-26.103L24.889,-26.098L44.904,-26.098L44.974,-26.098" style="fill:none;fill-rule:nonzero;stroke:white;stroke-width:1.5px;"/>
    </g>
    <g transform="matrix(0.447214,0.894427,0.894427,-0.447214,132.335,38.0898)">
        <path d="M-15.085,-27.745L-15.078,-27.745L4.924,-26.636L24.895,-25.523L44.892,-24.408" style="fill:none;fill-rule:nonzero;stroke:white;stroke-width:1.5px;"/>
    </g>
    <g transform="matrix(1,0,0,1,157.789,146.94)">
        <path d="M0,-30.274L17.299,-20.178L34.596,-10.088L51.883,0" style="fill:none;fill-rule:nonzero;stroke:white;stroke-width:1.5px;"/>
    </g>
    <g transform="matrix(1,0,0,1,71.316,96.483)">
        <path d="M0,-30.266L17.279,-20.18L34.572,-10.096L51.872,0" style="fill:none;fill-rule:nonzero;stroke:white;stroke-width:1.5px;"/>
    </g>
    <g transform="matrix(0.99999,0.00454314,0.00454314,-0.99999,160.526,106.521)">
        <path d="M-0,-0.136L20.03,-0.136L40.051,-0.134L60.072,-0.132L60.087,-0.131" style="fill:none;fill-rule:nonzero;stroke:white;stroke-width:1.5px;"/>
    </g>
    <g transform="matrix(1,0,0,1,60.4242,106.478)">
        <path d="M0,-0.266L19.998,-0.179L40.02,-0.091L60.049,0" style="fill:none;fill-rule:nonzero;stroke:white;stroke-width:1.5px;"/>
    </g>
    <g transform="matrix(1,0,0,1,150.596,123.865)">
        <path d="M0,-34.601C2.93,-32.898 5.464,-30.418 7.27,-27.266C7.279,-27.249 7.292,-27.227 7.302,-27.21C9.105,-24.049 9.952,-20.603 9.929,-17.208C9.914,-13.693 8.967,-10.236 7.193,-7.199C5.489,-4.269 3.013,-1.73 -0.14,0.076L-0.145,0.079C-3.311,1.9 -6.777,2.751 -10.183,2.734C-13.69,2.708 -17.144,1.766 -20.174,0.003C-23.108,-1.706 -25.644,-4.177 -27.455,-7.326C-27.458,-7.332 -27.465,-7.343 -27.468,-7.349C-29.287,-10.523 -30.145,-13.977 -30.123,-17.387C-30.111,-20.893 -29.172,-24.352 -27.409,-27.382C-25.703,-30.321 -23.224,-32.869 -20.061,-34.682C-20.044,-34.691 -20.033,-34.697 -20.017,-34.707C-16.852,-36.505 -13.406,-37.352 -10.01,-37.328C-6.496,-37.314 -3.034,-36.369 0,-34.601Z" style="fill:none;fill-rule:nonzero;stroke:white;stroke-width:1.5px;"/>
    </g>
    <g transform="matrix(1,0,0,1,160.683,141.152)">
        <path d="M0,-69.19C5.867,-65.773 10.939,-60.816 14.558,-54.5C14.571,-54.478 14.583,-54.456 14.596,-54.434C18.207,-48.106 19.907,-41.203 19.871,-34.404C19.826,-27.379 17.939,-20.464 14.405,-14.391C10.984,-8.529 6.034,-3.46 -0.277,0.156C-0.282,0.159 -0.293,0.165 -0.299,0.168C-6.632,3.796 -13.549,5.497 -20.362,5.462C-27.375,5.425 -34.282,3.54 -40.348,0.017C-46.221,-3.397 -51.305,-8.361 -54.924,-14.677L-54.933,-14.694C-58.565,-21.032 -60.271,-27.946 -60.24,-34.765C-60.205,-41.783 -58.327,-48.701 -54.795,-54.765C-51.384,-60.643 -46.426,-65.724 -40.104,-69.346C-40.082,-69.359 -40.065,-69.368 -40.043,-69.381C-33.707,-72.99 -26.809,-74.687 -20.007,-74.645C-12.98,-74.608 -6.07,-72.718 0,-69.19Z" style="fill:none;fill-rule:nonzero;stroke:white;stroke-width:1.5px;"/>
    </g>
    <g transform="matrix(1,0,0,1,170.768,158.452)">
        <path d="M0,-103.783C8.806,-98.66 16.426,-91.225 21.854,-81.751C21.867,-81.729 21.883,-81.701 21.895,-81.679C27.322,-72.182 29.866,-61.825 29.808,-51.615C29.754,-41.079 26.919,-30.707 21.617,-21.6C16.487,-12.805 9.055,-5.194 -0.414,0.231C-0.425,0.237 -0.436,0.244 -0.447,0.25C-9.95,5.68 -20.315,8.236 -30.53,8.181C-41.052,8.126 -51.418,5.302 -60.518,0.011C-69.33,-5.109 -76.956,-12.555 -82.393,-22.032L-82.396,-22.037C-87.846,-31.55 -90.409,-41.927 -90.345,-52.153C-90.294,-62.681 -87.47,-73.046 -82.173,-82.15C-77.045,-90.959 -69.61,-98.579 -60.127,-104.005C-60.105,-104.018 -60.077,-104.033 -60.055,-104.046C-50.563,-109.469 -40.209,-112.019 -30.009,-111.963C-19.476,-111.915 -9.101,-109.088 0,-103.783Z" style="fill:none;fill-rule:nonzero;stroke:white;stroke-width:1.5px;"/>
    </g>
    <g transform="matrix(1,0,0,1,180.855,175.743)">
        <path d="M0,-138.375C11.74,-131.543 21.899,-121.632 29.133,-109.005C29.152,-108.972 29.171,-108.939 29.19,-108.906C36.418,-96.239 39.816,-82.424 39.742,-68.817C39.665,-54.769 35.891,-40.937 28.82,-28.797C21.988,-17.072 12.075,-6.927 -0.546,0.304C-0.568,0.317 -0.584,0.326 -0.606,0.339C-13.273,7.581 -27.089,10.988 -40.705,10.912C-54.742,10.842 -68.561,7.076 -80.69,0.014C-92.441,-6.812 -102.606,-16.734 -109.849,-29.378C-109.853,-29.383 -109.853,-29.383 -109.856,-29.389C-117.118,-42.065 -120.529,-55.902 -120.459,-69.528C-120.388,-83.574 -116.611,-97.4 -109.551,-109.533C-102.722,-121.279 -92.805,-131.441 -80.173,-138.678C-80.14,-138.697 -80.112,-138.713 -80.079,-138.732C-67.416,-145.965 -53.615,-149.363 -40.008,-149.289C-25.968,-149.214 -12.137,-145.44 0,-138.375Z" style="fill:none;fill-rule:nonzero;stroke:white;stroke-width:1.5px;"/>
    </g>
</svg>
